<?xml version="1.0" encoding="UTF-8" standalone="no"?>
<svg
   xmlns:dc="http://purl.org/dc/elements/1.1/"
   xmlns:cc="http://creativecommons.org/ns#"
   xmlns:rdf="http://www.w3.org/1999/02/22-rdf-syntax-ns#"
   xmlns:svg="http://www.w3.org/2000/svg"
   xmlns="http://www.w3.org/2000/svg"
   xmlns:sodipodi="http://sodipodi.sourceforge.net/DTD/sodipodi-0.dtd"
   xmlns:inkscape="http://www.inkscape.org/namespaces/inkscape"
   version="1.1"
   id="svg3730"
   sodipodi:docname="sun.svg"
   width="125"
   height="125"
   inkscape:version="0.92.1 r">
  <metadata
     id="metadata3736">
    <rdf:RDF>
      <cc:Work
         rdf:about="">
        <dc:format>image/svg+xml</dc:format>
        <dc:type
           rdf:resource="http://purl.org/dc/dcmitype/StillImage" />
        <dc:title></dc:title>
      </cc:Work>
    </rdf:RDF>
  </metadata>
  <defs
     id="defs3734" />
  <sodipodi:namedview
     pagecolor="#ffffff"
     bordercolor="#666666"
     borderopacity="1"
     objecttolerance="10"
     gridtolerance="10"
     guidetolerance="10"
     inkscape:pageopacity="0"
     inkscape:pageshadow="2"
     inkscape:window-width="1920"
     inkscape:window-height="1038"
     id="namedview3732"
     showgrid="false"
     inkscape:zoom="1.4990664"
     inkscape:cx="168.65223"
     inkscape:cy="198.61958"
     inkscape:window-x="1366"
     inkscape:window-y="0"
     inkscape:window-maximized="1"
     inkscape:current-layer="svg3730" />
  <path
     d="m 0,62.527575 q 0,2.15042 1.4887734,3.639163 1.543893,1.433623 3.528894,1.433623 H 17.037941 q 2.040151,0 3.39105,-1.488742 1.3509,-1.488774 1.3509,-3.584044 0,-2.09527 -1.3509,-3.556469 -1.350899,-1.461169 -3.39105,-1.461169 H 5.0176674 q -2.0401509,0 -3.528894,1.488743 Q 0,60.487424 0,62.527575 Z M 16.817404,21.779891 q 0,2.040151 1.378472,3.584043 l 8.656801,8.381112 q 1.323324,1.378474 3.473744,1.378474 2.0953,0 3.50132,-1.323324 1.406049,-1.323355 1.406049,-3.363475 0,-2.15042 -1.433594,-3.749462 l -8.381142,-8.381113 q -3.584013,-2.812096 -7.223178,0 -1.378472,1.488744 -1.378472,3.473745 z m 0,81.440219 q 0,2.04015 1.378472,3.58404 1.709284,1.4336 3.749434,1.4336 1.929851,0 3.473744,-1.4336 l 8.381142,-8.656827 q 1.433594,-1.323325 1.433594,-3.473744 0,-2.09527 -1.406049,-3.50132 -1.40602,-1.406049 -3.50132,-1.406049 -2.15042,0 -3.473744,1.433624 l -8.656801,8.381112 q -1.378472,1.488744 -1.378472,3.639164 z M 31.815195,62.527575 q 0,8.215693 4.135421,15.301055 4.135421,7.085363 11.220754,11.220784 7.085362,4.135421 15.301055,4.135421 6.175572,0 11.854885,-2.453684 5.679315,-2.453684 9.787161,-6.56153 4.107846,-4.107876 6.533956,-9.787161 2.426108,-5.679313 2.426108,-11.854885 0,-8.270843 -4.107846,-15.32863 -4.107847,-7.057788 -11.165634,-11.165634 -7.057788,-4.107846 -15.32863,-4.107846 -8.270843,0 -15.3286,4.107846 -7.057788,4.107846 -11.193209,11.165634 -4.135421,7.057787 -4.135421,15.32863 z m 9.980127,0 q 0,-8.601681 6.037724,-14.694529 6.037728,-6.092846 14.639379,-6.092846 8.601681,0 14.694529,6.092846 6.092876,6.092848 6.092876,14.694529 0,8.491411 -6.092876,14.501534 -6.092848,6.010152 -14.694529,6.010152 -8.546531,0 -14.611804,-6.010152 -6.065298,-6.010123 -6.065299,-14.501534 z M 57.454788,16.817404 q 0,2.09527 1.461199,3.528863 1.461168,1.433624 3.556438,1.433624 2.15042,0 3.584044,-1.433624 1.433623,-1.433593 1.433623,-3.528863 V 5.127937 q 0,-2.15042 -1.461198,-3.639164 Q 64.567725,0 62.472425,0 60.377155,0 58.915987,1.488773 57.454788,2.977517 57.454788,5.127937 Z m 0,91.144656 v 12.0203 q 0,2.04012 1.488742,3.5289 Q 60.432305,125 62.472425,125 q 2.040151,0 3.528895,-1.48874 1.488772,-1.48878 1.488772,-3.5289 v -12.0203 q 0,-2.04012 -1.461198,-3.39105 -1.461169,-1.3509 -3.556469,-1.3509 -2.09527,0 -3.556438,1.3509 -1.461199,1.35093 -1.461199,3.39105 z M 89.93163,30.436721 q 0,2.04012 1.323324,3.308325 1.323355,1.378474 3.308355,1.378474 2.150421,0 3.528893,-1.378474 l 8.601678,-8.381112 q 1.4336,-1.543892 1.4336,-3.584043 0,-2.040151 -1.4336,-3.473745 -3.52889,-2.756946 -7.057784,0 l -8.381142,8.381113 q -1.323324,1.488742 -1.323324,3.749462 z m 0,64.236858 q 0,2.205568 1.323324,3.473743 l 8.381142,8.656828 q 1.543894,1.4336 3.473744,1.4336 2.09527,0 3.55647,-1.48875 1.46117,-1.48874 1.46117,-3.52889 0,-2.20554 -1.4336,-3.639164 L 98.092202,91.199834 Q 96.49316,89.76621 94.563309,89.76621 q -1.985,0 -3.308355,1.406049 -1.323324,1.40605 -1.323324,3.50132 z m 13.28848,-32.146004 q 0,2.09527 1.43362,3.639163 1.43363,1.433623 3.36348,1.433623 h 11.91 q 2.04015,0 3.55647,-1.516317 Q 125,64.567726 125,62.527575 q 0,-2.040151 -1.51632,-3.528895 -1.51632,-1.488743 -3.55647,-1.488743 h -11.91 q -2.04015,0 -3.41863,1.461169 -1.37847,1.461199 -1.37847,3.556469 z"
     id="path3728"
     inkscape:connector-curvature="0"
     style="stroke-width:0.055;stroke:none;stroke-opacity:1;stroke-miterlimit:4;stroke-dasharray:none;fill:#c3cee0;fill-opacity:1" />
</svg>
