<?xml version="1.0" encoding="UTF-8" standalone="no"?>
<svg
   xmlns:dc="http://purl.org/dc/elements/1.1/"
   xmlns:cc="http://creativecommons.org/ns#"
   xmlns:rdf="http://www.w3.org/1999/02/22-rdf-syntax-ns#"
   xmlns:svg="http://www.w3.org/2000/svg"
   xmlns="http://www.w3.org/2000/svg"
   xmlns:sodipodi="http://sodipodi.sourceforge.net/DTD/sodipodi-0.dtd"
   xmlns:inkscape="http://www.inkscape.org/namespaces/inkscape"
   width="4cm"
   height="4cm"
   viewBox="0 0 400 400"
   version="1.1"
   id="svg4"
   sodipodi:docname="sunrise.svg"
   inkscape:version="0.92.1 r">
  <metadata
     id="metadata10">
    <rdf:RDF>
      <cc:Work
         rdf:about="">
        <dc:format>image/svg+xml</dc:format>
        <dc:type
           rdf:resource="http://purl.org/dc/dcmitype/StillImage" />
      </cc:Work>
    </rdf:RDF>
  </metadata>
  <defs
     id="defs8" />
  <sodipodi:namedview
     pagecolor="#ffffff"
     bordercolor="#666666"
     borderopacity="1"
     objecttolerance="10"
     gridtolerance="10"
     guidetolerance="10"
     inkscape:pageopacity="0"
     inkscape:pageshadow="2"
     inkscape:window-width="1366"
     inkscape:window-height="697"
     id="namedview6"
     showgrid="false"
     inkscape:zoom="0.19513021"
     inkscape:cx="-998.35878"
     inkscape:cy="-183.30806"
     inkscape:window-x="0"
     inkscape:window-y="29"
     inkscape:window-maximized="1"
     inkscape:current-layer="svg4" />
  <path
     d="M0 693q0 40 32 74q36 31 75 31h248q43 0 72 -31t29 -74q0 -46 -29 -77t-72 -31h-248q-43 0 -75 32.5t-32 75.5zM355 1544q0 43 28 73q36 31 75 31q42 0 73 -31l175 -176q30 -35 30 -74q0 -45 -29 -75t-70 -30q-39 0 -75 31l-179 173q-28 34 -28 78zM568 104q0 45 31 73 q28 28 73 28h281l332 312q16 13 36 0l337 -312h295q43 0 73.5 -29.5t30.5 -71.5q0 -43 -30.5 -74t-73.5 -31h-361q-16 0 -31 8l-257 242l-255 -242q-13 -8 -30 -8h-347q-43 0 -73.5 31t-30.5 74zM667 693q0 -155 66 -282q4 -19 27 -19h201q12 0 16 9t-2 20 q-102 123 -102 272q0 180 128 306t308 126q179 0 305.5 -126t126.5 -306q0 -150 -101 -272q-7 -11 -3.5 -20t16.5 -9h203q21 0 25 19q66 123 66 282q0 130 -51 248t-136.5 203.5t-203.5 136t-247 50.5q-130 0 -248.5 -50.5t-205 -136t-137.5 -203.5t-51 -248zM1203 1648v245 q0 46 30 75.5t76 29.5q45 0 74.5 -30t29.5 -75v-245q0 -46 -29.5 -75.5t-74.5 -29.5q-46 0 -76 29.5t-30 75.5zM1880 1367q0 40 29 74l173 176q31 31 75 31t74 -30.5t30 -73.5q0 -46 -28 -78l-180 -173q-34 -31 -75 -31q-43 0 -70.5 29.5t-27.5 75.5zM2159 693q0 43 28.5 74 t70.5 31h251q43 0 74 -31t31 -74q0 -44 -31 -76t-74 -32h-251q-43 0 -71 31t-28 77z"
     id="path2"
     style="fill:#c3cee0;fill-opacity:1" />
</svg>
